<svg xmlns="http://www.w3.org/2000/svg" version="1.1" viewBox="-5.0 -10.0 110.0 135.0">
 <g fill-rule="evenodd" fill="#0f2c49">
  <path d="m58.492 24.289c0.48828 1.5898 0.69141 3.2266 0.63672 4.8398l3.7773 1.6719c0.44531 0.19531 0.67578 0.67969 0.55078 1.1484l-0.90625 3.3906c-0.125 0.46875-0.56641 0.76953-1.0508 0.71875l-4.1055-0.44141c-0.75781 1.4258-1.7539 2.7383-2.9727 3.875l1.4883 3.8516c0.17578 0.45312-0.003906 0.95703-0.42188 1.1992l-3.0391 1.7539c-0.42188 0.24219-0.94531 0.14453-1.25-0.23438l-2.5898-3.2148c-1.5898 0.48828-3.2266 0.69141-4.8398 0.63672l-1.6719 3.7773c-0.19531 0.44531-0.67969 0.67578-1.1484 0.55078l-3.3906-0.90625c-0.46875-0.125-0.76953-0.56641-0.71875-1.0508l0.44141-4.1055c-1.4258-0.75781-2.7383-1.7539-3.875-2.9727l-3.8516 1.4883c-0.45313 0.17578-0.95703-0.003906-1.1992-0.42188l-1.7539-3.0391c-0.24219-0.42188-0.14453-0.94531 0.23438-1.25l3.2148-2.5898c-0.48828-1.5898-0.69141-3.2266-0.63672-4.8398l-3.7773-1.6719c-0.44531-0.19531-0.67578-0.67969-0.55078-1.1484l0.90625-3.3906c0.125-0.46875 0.56641-0.76953 1.0508-0.71875l4.1055 0.44141c0.75781-1.4258 1.7539-2.7383 2.9727-3.875l-1.4883-3.8516c-0.17578-0.45312 0.003907-0.95703 0.42188-1.1992l3.0391-1.7539c0.42188-0.24219 0.94531-0.14453 1.25 0.23438l2.5898 3.2148c1.5898-0.48828 3.2266-0.69141 4.8398-0.63672l1.6719-3.7773c0.19531-0.44531 0.67969-0.67578 1.1484-0.55078l3.3906 0.90625c0.46875 0.125 0.76953 0.56641 0.71875 1.0508l-0.44141 4.1055c1.4258 0.75781 2.7422 1.7539 3.875 2.9727l3.8516-1.4883c0.45312-0.17578 0.95703 0.003907 1.1992 0.42188l1.7539 3.0391c0.24219 0.42188 0.14453 0.94531-0.23438 1.25zm-8.3906 0.96875c-1.8594-3.2227-5.9766-4.3242-9.1992-2.4648-3.2188 1.8594-4.3242 5.9766-2.4648 9.1992 1.8594 3.2227 5.9766 4.3242 9.1992 2.4648 3.2227-1.8633 4.3242-5.9805 2.4648-9.1992z"/>
  <path d="m30.352 54.852c1.7266 0.39844 3.3398 1.0781 4.8008 1.9883l3.5508-2.5938c0.41797-0.30469 0.98438-0.26172 1.3477 0.10547l2.6406 2.6406c0.36719 0.36719 0.41016 0.93359 0.10547 1.3477l-2.5938 3.5508c0.91016 1.457 1.5898 3.0742 1.9883 4.8008l4.3398 0.67578c0.51172 0.078124 0.87891 0.51172 0.87891 1.0273v3.7344c0 0.51562-0.37109 0.94922-0.87891 1.0273l-4.3398 0.67578c-0.39844 1.7266-1.0781 3.3398-1.9883 4.8008l2.5938 3.5508c0.30469 0.41797 0.26172 0.98438-0.10547 1.3477l-2.6406 2.6406c-0.36719 0.36719-0.93359 0.41016-1.3477 0.10547l-3.5508-2.5938c-1.457 0.91016-3.0742 1.5898-4.8008 1.9883l-0.67578 4.3398c-0.078125 0.51172-0.51172 0.87891-1.0273 0.87891l-3.7344 0.003906c-0.51562 0-0.94922-0.37109-1.0273-0.87891l-0.67578-4.3398c-1.7266-0.39844-3.3398-1.0781-4.8008-1.9883l-3.5508 2.5938c-0.41797 0.30469-0.98438 0.26172-1.3477-0.10547l-2.6406-2.6406c-0.36719-0.36719-0.41016-0.93359-0.10547-1.3477l2.5938-3.5508c-0.91016-1.457-1.5898-3.0742-1.9883-4.8008l-4.3398-0.67578c-0.51172-0.078125-0.87891-0.51172-0.87891-1.0273v-3.7344c0-0.51563 0.37109-0.94922 0.87891-1.0273l4.3398-0.67578c0.39844-1.7266 1.0781-3.3398 1.9883-4.8008l-2.5938-3.5508c-0.30469-0.41797-0.26172-0.98438 0.10547-1.3477l2.6406-2.6406c0.36719-0.36719 0.93359-0.41016 1.3477-0.10547l3.5508 2.5938c1.457-0.91016 3.0742-1.5938 4.8008-1.9883l0.67578-4.3398c0.078125-0.51172 0.51172-0.87891 1.0273-0.87891h3.7344c0.51562 0 0.94922 0.37109 1.0273 0.87891zm-3.5703 8.2461c-3.957 0-7.1641 3.207-7.1641 7.1641s3.207 7.1641 7.1641 7.1641 7.1641-3.207 7.1641-7.1641c0-3.9531-3.207-7.1641-7.1641-7.1641z"/>
  <path d="m81.277 48.996c1.5234 0.80859 2.875 1.8594 4.0156 3.082l3.9961-1.543c0.46875-0.17969 0.99219 0.003906 1.2422 0.4375l1.8203 3.1484c0.25 0.4375 0.14844 0.98047-0.24219 1.2969l-3.3359 2.6875c0.48828 1.6016 0.72266 3.2969 0.66406 5.0195l3.9141 1.7305c0.46094 0.20312 0.69922 0.70312 0.57031 1.1914l-0.94141 3.5156c-0.12891 0.48438-0.58594 0.80078-1.0898 0.74609l-4.2578-0.45703c-0.80859 1.5234-1.8594 2.875-3.082 4.0156l1.543 3.9961c0.17969 0.46875-0.003906 0.99219-0.4375 1.2422l-3.1484 1.8203c-0.4375 0.25-0.98047 0.14844-1.2969-0.24219l-2.6875-3.3359c-1.6016 0.48828-3.2969 0.72266-5.0195 0.66406l-1.7305 3.9141c-0.20313 0.46094-0.70313 0.69922-1.1914 0.57031l-3.5156-0.94141c-0.48828-0.12891-0.80078-0.58594-0.74609-1.0898l0.45703-4.2578c-1.5234-0.80859-2.875-1.8594-4.0156-3.082l-3.9961 1.543c-0.46875 0.17969-0.99219-0.003907-1.2422-0.4375l-1.8203-3.1484c-0.25-0.4375-0.14844-0.98047 0.24219-1.2969l3.3359-2.6875c-0.48828-1.6016-0.72266-3.2969-0.66406-5.0195l-3.9141-1.7305c-0.46094-0.20312-0.69922-0.70312-0.57031-1.1914l0.94141-3.5156c0.12891-0.48828 0.58594-0.80078 1.0898-0.74609l4.2578 0.45703c0.80859-1.5234 1.8594-2.875 3.082-4.0156l-1.543-3.9961c-0.17969-0.46875 0.003906-0.99219 0.4375-1.2422l3.1484-1.8203c0.4375-0.25 0.98047-0.14844 1.2969 0.24219l2.6875 3.3359c1.6016-0.48828 3.2969-0.72266 5.0195-0.66406l1.7305-3.9141c0.20312-0.46094 0.70312-0.69922 1.1914-0.57031l3.5156 0.94141c0.48828 0.12891 0.80078 0.58594 0.74609 1.0898zm-5.4414 6.8633c-3.7227-0.99609-7.5547 1.2109-8.5508 4.9375-0.99609 3.7227 1.2109 7.5547 4.9375 8.5508 3.7227 0.99609 7.5547-1.2109 8.5508-4.9375 0.99609-3.7227-1.2148-7.5547-4.9375-8.5508z"/>
 </g>
</svg>